<svg width="1440" height="788" viewBox="0 0 1440 788" fill="none" xmlns="http://www.w3.org/2000/svg">
<path d="M1527.97 355C1527.97 497.213 1234.25 631.072 1081.41 631.072C928.561 631.072 1056.15 481.286 1056.15 339.072C1056.15 196.859 928.561 0 1081.41 0C1234.25 0 1527.97 212.787 1527.97 355Z" fill="#8139EF"/>
<path opacity="0.5" d="M-17.8196 769.874C-17.8196 769.874 39.1186 622.652 31.9637 479.963C24.8089 337.274 69.9024 230.118 143.435 238.455C216.968 246.793 281 505.032 1.11972 785.318L-17.8196 769.874Z" fill="#AC75FF"/>
<path opacity="0.5" d="M6.77148 764.502L1.05963 761.144C2.08175 759.634 104.354 606.201 108.322 436.989L115.056 437.101C111.088 608.104 7.7936 762.935 6.71136 764.502H6.77148Z" fill="white"/>
<path opacity="0.5" d="M-5.01305 787.388C-5.01305 787.388 97.0187 737.867 201.696 729.193C306.373 720.52 380.326 682.19 367.46 636.529C354.593 590.869 160.51 574.306 -18 776.812L-5.01305 787.388Z" fill="#7932E4"/>
<path opacity="0.5" d="M0.277957 775.413L-4.05103 770.601C-3.0289 769.818 100.566 690.136 225.084 671.838L226.167 678.049C103.512 696.123 1.30008 774.686 0.277957 775.469V775.413Z" fill="white"/>
</svg>
