<?xml version="1.0" encoding="UTF-8"?>
<svg id="Calque_1" data-name="Calque 1" xmlns="http://www.w3.org/2000/svg" viewBox="0 0 1920 1080">
  <defs>
    <style>
      .cls-1 {
        fill: #fff;
      }
    </style>
  </defs>
  <path class="cls-1" d="m1154.76,548.27c82.14-90.11-60.32-69.5-85.47-46.77-25.16,22.73-47.86,3.07-29.28-28.19,18.58-31.26,76.97-166.41,76.97-233.54s-27.69-141.11-61.84-141.11c-130.49,0-6.76,332.58-74.96,372.97-18.45,10.92-59.71,10.95-69.07,1.67-59.42-100.19,4.99-304.81-97.11-247.34-56.9,56.9-43.51,156.71,55.03,246.77,17.49,16.02,5.81,58.76-31.62,25.12-37.43-33.65-138.89-19.47-78.81,40.61,84.13,84.13,85.17,189.21,85.17,236.49s-23.04,115.37-50.62,143.37c-27.58,28.01-11.31,62.98,31.02,62.98s87.08-53.36,122.52-53.36c61.47,0,90.06,53.36,121.69,53.36,29.62,0,92.83-1.93,41.08-53.67-51.75-51.75-83.17-250.9,45.3-379.38Zm-300.71-142c-16.37,2.93-47.42-52.38-51.68-76.22-4.26-23.85,5.55-45.55,21.93-48.48,16.37-2.93,33.1,14.03,37.36,37.88,4.26,23.85,8.76,83.89-7.61,86.82Zm201.08-230.07c22.02,0,39.88,27.74,39.88,61.96s-25.91,127.9-47.93,127.9-31.81-93.69-31.81-127.9,17.85-61.96,39.87-61.96Zm-193.74,405.76c-4.99-9.73,4.02-20.97,14.55-18.04,81.26,22.59,137.99,5.17,173.37-12.33,10.64-5.26,21.96,5.69,17.23,16.57-87.97,202.56-174.02,74.48-205.15,13.8Z"/>
</svg>