<svg width="272" height="471" viewBox="0 0 272 471" fill="none" xmlns="http://www.w3.org/2000/svg">
<path d="M256.007 258.244C306.556 206.543 222.859 224.372 203.406 231.41C183.023 238.787 173.954 233.165 185.381 215.241C196.808 197.306 232.745 119.765 232.745 81.2639C232.745 42.7629 215.706 0.309326 194.688 0.309326C114.382 0.309326 190.528 191.113 148.561 214.29C137.202 220.557 111.819 220.567 106.061 215.251C69.5008 157.769 109.133 40.385 46.2953 73.3482C11.2773 105.994 19.5188 163.254 80.157 214.924C90.9153 224.118 87.7864 237.741 60.7038 229.339C31.3086 220.229 -24.7723 218.168 12.2069 252.643C63.9801 300.909 64.6149 361.191 64.6149 388.321C64.6149 415.45 50.4332 454.511 33.4626 470.575C16.4921 486.639 26.502 506.709 52.553 506.709C78.604 506.709 106.14 476.092 127.951 476.092C165.781 476.092 183.375 506.709 202.839 506.709C221.068 506.709 259.963 505.599 228.119 475.912C196.276 446.225 176.936 331.97 255.995 258.265L256.007 258.244ZM70.9519 176.771C60.8739 178.452 41.772 146.725 39.1533 133.039C36.5346 119.363 42.5656 106.903 52.6437 105.223C62.7217 103.542 73.0151 113.276 75.6338 126.952C78.2525 140.627 81.03 175.08 70.9519 176.761V176.771ZM194.7 44.7815C208.247 44.7815 219.243 60.6977 219.243 80.3234C219.243 99.949 203.293 153.7 189.746 153.7C176.199 153.7 170.168 99.949 170.168 80.3234C170.168 60.6977 181.153 44.7815 194.711 44.7815H194.7ZM75.4751 277.574C72.403 271.993 77.9465 265.547 84.4309 267.216C134.436 280.173 169.352 270.186 191.117 260.146C197.659 257.124 204.63 263.412 201.728 269.658C147.586 385.869 94.6336 312.386 75.4751 277.574Z" fill="#CC2D45" fill-opacity="0.12"/>
</svg>
