<svg width="1440" height="490" viewBox="0 0 1440 490" fill="none" xmlns="http://www.w3.org/2000/svg">
<g clip-path="url(#clip0_419_414)">
<path d="M1226.72 281.626C1283.37 283.297 1371.22 280.093 1451.63 220.808C1531.94 161.636 1513.86 57.4455 1513.86 57.4455C1513.86 57.4455 1417.31 14.4457 1339.68 78.6459C1262.15 142.732 1238.1 226.877 1226.7 281.691L1226.72 281.626Z" fill="#7932E4" fill-opacity="0.1"/>
<path d="M1513.22 56.6513L1514.44 58.1557L1275.63 244.745L1274.43 243.175L1513.22 56.6513Z" fill="white"/>
<path d="M1350.56 185.29C1350.73 185.686 1352.66 190.658 1352.9 199.943C1353.14 209.228 1351.69 222.892 1345.05 240.589L1343.21 239.898C1349.67 222.577 1351.06 209.175 1350.85 200.038C1350.71 195.46 1350.21 191.979 1349.71 189.612C1349.21 187.245 1348.69 185.994 1348.69 185.994L1350.49 185.273L1350.56 185.29Z" fill="white"/>
<path d="M1393.63 150.944L1392.51 152.541C1392.51 152.541 1391.14 151.625 1388.59 150.403C1385.98 149.163 1382.05 147.583 1376.83 146.154C1366.23 143.328 1350.22 141.12 1328.13 143.757L1327.87 141.803C1350.39 139.137 1366.61 141.33 1377.34 144.191C1388.06 147.052 1393.27 150.711 1393.69 150.961L1393.63 150.944Z" fill="white"/>
<path d="M1472.71 89.2185L1471.6 90.8148C1471.6 90.8148 1470.07 89.7173 1467.07 88.3103C1464.08 86.9032 1459.6 85.0387 1453.59 83.4052C1441.5 80.1211 1423.14 77.579 1397.87 80.5781L1397.61 78.6238C1423.3 75.5961 1441.82 78.1069 1454.03 81.4251C1466.25 84.7433 1472.17 88.8688 1472.65 89.2015L1472.71 89.2185Z" fill="white"/>
<path d="M1439.13 116.114C1439.39 116.739 1442.23 124.115 1442.53 138.025C1442.83 151.936 1440.62 172.251 1430.74 198.674L1428.89 197.983C1438.6 171.936 1440.78 151.752 1440.44 137.972C1440.28 131.082 1439.54 125.86 1438.78 122.31C1438.03 118.76 1437.34 116.834 1437.34 116.834L1439.13 116.114Z" fill="white"/>
<path d="M1320.07 208.378L1318.95 209.975C1318.95 209.975 1315.92 207.927 1309.64 206.226C1303.37 204.524 1293.96 203.333 1280.97 204.845L1280.71 202.891C1294.14 201.284 1303.88 202.561 1310.28 204.297C1316.71 205.967 1319.84 208.179 1320.08 208.313L1320.07 208.378Z" fill="white"/>
</g>
<g clip-path="url(#clip1_419_414)">
<path d="M104.559 188.145C66.6867 208.19 10.114 243.09 -20.6296 312.086C-51.3501 380.97 -0.567927 442.73 -0.567927 442.73C-0.567927 442.73 78.9627 434.968 106.045 363.778C133.104 292.699 117.515 228.39 104.545 188.096L104.559 188.145Z" fill="#7932E4" fill-opacity="0.1"/>
<path d="M0.144592 443.016L-1.21755 442.481L86.1656 230.651L87.541 231.236L0.144592 443.016Z" fill="white"/>
<path d="M59.0899 297.712C58.826 297.518 55.7048 294.968 52.0793 288.953C48.4539 282.938 44.3111 273.41 42.0666 259.298L43.5402 259.062C45.7547 272.864 49.8446 282.195 53.3941 288.124C55.1936 291.082 56.8176 293.187 58.0321 294.556C59.2466 295.924 60.0516 296.555 60.0516 296.555L59.1394 297.699L59.0899 297.712Z" fill="white"/>
<path d="M43.5882 336.374L43.7254 334.908C43.7254 334.908 44.9685 334.998 47.1015 334.85C49.284 334.689 52.4554 334.262 56.4241 333.252C64.4472 331.155 75.7949 326.632 89.3369 316.653L90.2381 317.84C76.4258 327.998 64.943 332.61 56.821 334.733C48.699 336.857 43.9114 336.393 43.5388 336.387L43.5882 336.374Z" fill="white"/>
<path d="M14.626 406.48L14.7632 405.015C14.7632 405.015 16.1811 405.164 18.6735 404.973C21.1658 404.781 24.8087 404.334 29.3707 403.165C38.5443 400.813 51.5696 395.629 67.0622 384.227L67.9633 385.414C52.2005 396.995 39.0895 402.254 29.8171 404.633C20.5447 407.012 15.1107 406.509 14.6755 406.467L14.626 406.48Z" fill="white"/>
<path d="M26.6666 376.262C26.2641 375.946 21.645 372.156 16.2563 363.121C10.8676 354.085 4.73589 339.904 1.37093 318.841L2.8445 318.605C6.17951 339.358 12.2848 353.441 17.647 362.378C20.3281 366.846 22.7641 370.004 24.5858 372.056C26.4076 374.109 27.5789 375.118 27.5789 375.118L26.6666 376.262Z" fill="white"/>
<path d="M70.5205 271.151L70.6576 269.685C70.6576 269.685 73.4175 269.898 78.1773 268.676C82.9371 267.453 89.5716 264.723 97.5453 258.881L98.4464 260.069C90.2158 266.138 83.3341 268.934 78.4753 270.183C73.6298 271.482 70.7447 271.196 70.5337 271.2L70.5205 271.151Z" fill="white"/>
</g>
<g clip-path="url(#clip2_419_414)">
<path d="M112.415 383.859C90.789 381.216 57.0428 379.335 24.1635 399.186C-8.67366 418.998 -5.43544 459.524 -5.43544 459.524C-5.43544 459.524 30.0019 479.4 61.9913 457.569C93.9385 435.777 106.125 404.416 112.424 383.835L112.415 383.859Z" fill="#7932E4" fill-opacity="0.3"/>
<path d="M-5.22164 459.851L-5.63454 459.232L92.3876 396.248L92.7917 396.892L-5.22164 459.851Z" fill="white"/>
<path d="M61.6012 416.359C61.5474 416.201 60.9865 414.23 61.222 410.666C61.4575 407.103 62.4982 401.924 65.6631 395.384L66.3465 395.714C63.259 402.116 62.2537 407.197 62.0114 410.703C61.9025 412.46 61.9682 413.81 62.0772 414.734C62.1863 415.658 62.3388 416.155 62.3388 416.155L61.6256 416.367L61.6012 416.359Z" fill="white"/>
<path d="M43.8974 427.984L44.3807 427.412C44.3807 427.412 44.873 427.811 45.806 428.369C46.7635 428.936 48.2106 429.68 50.1601 430.412C54.1169 431.869 60.1658 433.28 68.7162 433.052L68.747 433.809C60.0321 434.033 53.9009 432.62 49.8952 431.145C45.8894 429.67 44.0266 428.086 43.8729 427.975L43.8974 427.984Z" fill="white"/>
<path d="M11.4386 448.816L11.9218 448.244C11.9218 448.244 12.47 448.719 13.5655 449.363C14.661 450.008 16.3108 450.88 18.554 451.718C23.065 453.403 30.006 455.026 39.7836 454.771L39.8144 455.528C29.8723 455.779 22.8735 454.163 18.3136 452.46C13.7536 450.758 11.6324 448.969 11.4631 448.825L11.4386 448.816Z" fill="white"/>
<path d="M25.2446 439.708C25.1683 439.459 24.3427 436.535 24.7204 431.2C25.0981 425.864 26.6615 418.165 31.379 408.399L32.0624 408.729C27.4224 418.357 25.8766 426.007 25.5166 431.294C25.3366 433.937 25.4351 435.963 25.5987 437.348C25.7624 438.734 25.9577 439.496 25.9577 439.496L25.2446 439.708Z" fill="white"/>
<path d="M74.0899 408.599L74.5731 408.027C74.5731 408.027 75.6626 408.918 78.0038 409.791C80.345 410.665 83.9065 411.454 88.931 411.334L88.9618 412.091C83.764 412.231 80.08 411.398 77.6899 410.507C75.2909 409.64 74.1701 408.683 74.0811 408.623L74.0899 408.599Z" fill="white"/>
</g>
<defs>
<clipPath id="clip0_419_414">
<rect width="290.804" height="237.018" fill="white" transform="translate(1528.6 59.6724) rotate(104.582)"/>
</clipPath>
<clipPath id="clip1_419_414">
<rect width="219.877" height="179.209" fill="white" transform="translate(-11.0917 446.768) rotate(-105)"/>
</clipPath>
<clipPath id="clip2_419_414">
<rect width="111.8" height="91.1218" fill="white" transform="translate(-11 458.15) rotate(-70.1393)"/>
</clipPath>
</defs>
</svg>
