<svg width="1440" height="650" viewBox="0 0 1440 650" fill="none" xmlns="http://www.w3.org/2000/svg">
<g clip-path="url(#clip0_691_624)">
<path d="M-4.26532 165.365L-20.0297 205.295C-8.55266 227.911 7.85795 251.929 31.4552 272.809C50.3194 289.409 71.226 300.898 92.6932 308.69L117.73 277.58C117.73 277.58 115.167 286.609 112.604 295.637C109.976 304.601 107.38 313.597 107.38 313.597C132.752 320.947 157.875 323.973 179.86 324.586C201.812 325.167 220.368 323.527 232.383 320.329C239.687 303.816 246.495 270.687 242.48 233.164C242.48 233.164 233.092 234.191 223.705 235.218C214.383 236.311 205.049 237.481 205.049 237.481C205.049 237.481 213.906 232.935 222.717 228.434C231.607 223.921 240.483 219.485 240.483 219.485C233.929 181.235 215.808 140.836 180.457 111.463C167.672 100.67 154.028 92.3691 140.399 85.6217L91.1127 111.591L118.912 76.542C89.6642 65.9494 61.6731 62.5906 41.0783 61.8284C30.7872 61.4083 22.313 61.7184 16.4129 62.067C10.5455 62.4482 7.10892 62.8151 7.10892 62.8151L-19.1724 94.5826L-45.4537 126.35C-45.4537 126.35 -44.7952 133.529 -41.9955 145.294C-39.2286 157.026 -34.4965 173.26 -26.7014 191.197L-4.26532 165.365Z" fill="#CC2D45" fill-opacity="0.1"/>
<path d="M-27.3022 104.476C-13.7823 114.011 19.5062 137.61 60.8584 168.819C102.289 200.016 151.783 238.824 197.802 279.41C160.439 230.364 114.852 186.408 75.4172 152.497C36.0402 118.463 2.86018 94.4297 -11.0115 84.7238L-19.1732 94.5835L-27.3348 104.443L-27.3022 104.476Z" fill="#CC2D45" fill-opacity="0.3"/>
</g>
<path d="M1333.98 446.272C1325.46 456.281 1320.22 467.259 1318.61 478.882C1317.47 490.02 1320.12 501.697 1326.37 512.998C1326.37 512.998 1323.51 509.984 1319.25 505.464C1315.05 500.89 1309.17 495.025 1303.77 488.783C1293.47 475.814 1283.17 462.846 1283.17 462.846C1292.07 452.514 1297.03 441.645 1299.73 429.86C1302.21 418.183 1301.45 406.345 1297.03 394.775C1287.43 403.547 1281.07 413.717 1278.26 424.856C1276.86 430.452 1276.32 436.21 1276.7 442.183C1277.07 448.156 1278.21 454.344 1280.96 460.102C1280.96 460.102 1279.5 458.272 1277.4 455.582C1275.35 452.783 1272.92 448.855 1270.33 445.035L1260.14 429.645C1260.03 422.972 1259.11 416.784 1257.39 411.026C1255.93 405.107 1253.99 399.457 1251.08 394.345C1245.3 384.067 1236.35 375.619 1224.27 369C1222.97 382.184 1225.51 394.722 1231.23 405.538C1234.14 410.919 1237.7 415.923 1242.23 420.228C1247.03 424.318 1252.59 427.869 1258.73 430.667C1258.73 430.667 1261.27 434.542 1265.1 440.299C1266.99 443.205 1269.25 446.541 1271.63 450.147C1272.81 451.976 1274.05 453.806 1275.29 455.689C1276.7 457.465 1278.15 459.295 1279.56 461.124C1291.04 475.599 1302.53 490.074 1302.53 490.074C1282.31 474.684 1256.79 471.994 1232.68 481.949C1243.42 492.173 1256.09 497.984 1268.28 499.868C1280.63 501.644 1292.82 499.384 1304.85 492.765C1304.85 492.765 1316.23 504.872 1327.61 516.98C1333.12 523.222 1339.59 528.495 1344.12 532.746C1348.76 536.944 1351.83 539.688 1351.83 539.688C1346.11 536.674 1340.24 534.522 1334.3 533.177C1328.32 531.885 1322.27 531.24 1316.5 531.132C1304.8 531.132 1292.82 534.307 1281.39 540.979C1287.43 545.392 1293.63 548.782 1299.78 551.15C1305.88 553.571 1312.67 554.324 1318.88 554.378C1331.55 554.378 1343.53 550.181 1354.42 542.109C1354.42 542.109 1357.5 544.908 1362.13 549.051C1367.04 552.872 1373.62 557.93 1380.2 563.042C1386.78 568.1 1393.31 573.266 1398.65 576.494C1403.88 579.938 1407.33 582.198 1407.33 582.198C1401.24 580.1 1395.09 578.862 1388.94 578.378C1382.95 577.678 1377.13 577.678 1371.25 578.539C1359.55 580.261 1348.06 585.158 1337.65 593.391C1351.13 600.171 1364.24 603.346 1376.81 601.463C1389.37 599.579 1400.7 593.66 1410.36 584.136C1410.36 584.136 1413.81 586.396 1419.04 589.84C1424.27 593.23 1431.66 597.05 1438.89 601.194C1442.5 603.238 1446.17 605.229 1449.57 607.167C1453.07 608.835 1456.36 610.395 1459.17 611.741C1464.78 614.431 1468.55 616.207 1468.55 616.207C1455.93 613.732 1443.53 614.7 1432.31 617.821C1420.98 621.211 1410.3 627.722 1401.19 637.354C1408.36 639.83 1415.32 641.229 1422.01 641.713C1425.35 641.928 1428.59 641.928 1431.77 641.606C1435.01 641.175 1438.13 640.529 1441.21 639.615C1453.34 636.009 1463.65 628.583 1471.74 617.767C1471.74 617.767 1473.36 618.521 1476.11 619.866C1478.96 621.05 1483.06 622.664 1487.97 624.655C1497.68 628.852 1511.06 633.48 1524.54 637.839C1538.13 641.659 1551.84 645.211 1562.3 647.148C1572.66 649.3 1579.78 650 1579.78 650L1579.94 648.278C1579.94 648.278 1575.03 647.74 1567.69 646.448C1560.36 645.211 1550.65 642.951 1540.99 640.529C1531.45 637.785 1521.79 635.202 1514.83 632.565C1507.77 630.144 1503.08 628.529 1503.08 628.529C1504.91 615.184 1503.56 602.485 1499.41 591.669C1495.15 581.068 1488.51 571.221 1479.02 563.634C1475.4 576.172 1475.24 588.171 1478.64 599.203C1481.93 610.503 1489.43 619.489 1499.78 627.292C1499.78 627.292 1495.96 625.731 1490.18 623.417C1484.47 621.05 1476.65 618.144 1469.26 614.377C1461.81 610.772 1454.26 607.328 1448.76 604.476C1443.31 601.463 1439.7 599.418 1439.7 599.418C1443.58 586.396 1444.01 573.858 1441.42 562.665C1438.94 551.257 1433.82 540.549 1425.35 531.831C1419.96 543.67 1418.07 555.454 1419.9 566.809C1420.82 572.459 1422.65 578.055 1425.35 583.382C1428.21 588.494 1432.04 593.23 1436.68 597.696C1436.68 597.696 1433.06 595.651 1427.62 592.638C1422.06 589.84 1415.32 584.943 1408.36 580.476C1394.23 571.759 1381.34 561.374 1381.34 561.374C1387.05 549.051 1389.32 536.728 1388.35 525.267C1387.32 513.805 1383.98 502.182 1376.86 492.281C1369.79 503.258 1366.23 514.72 1366.34 526.289C1366.45 532.047 1367.31 537.912 1369.31 543.508C1371.47 548.89 1374.54 554.217 1378.48 559.275C1378.48 559.275 1375.19 556.746 1370.28 552.979C1365.21 549.374 1359.06 543.777 1352.96 538.235C1346.82 532.692 1340.67 527.15 1336.03 523.007C1333.66 521.016 1332.04 518.971 1330.74 517.679C1329.5 516.334 1328.8 515.581 1328.8 515.581C1336.24 504.173 1340.29 492.173 1341.04 480.55C1341.42 474.738 1340.94 469.034 1339.64 463.438C1338.4 457.788 1336.78 451.869 1334.03 446.326L1333.98 446.272Z" fill="#CC2D45" fill-opacity="0.3"/>
<defs>
<clipPath id="clip0_691_624">
<rect width="220.602" height="341.336" fill="white" transform="translate(311.351 241.361) rotate(135)"/>
</clipPath>
</defs>
</svg>
