<svg width="142" height="76" viewBox="0 0 142 76" fill="none" xmlns="http://www.w3.org/2000/svg">
<path d="M44.7263 40.6065C42.1703 40.2835 42.8263 52.148 34.0822 43.2433C32.0802 41.3384 33.0801 39.5566 33.5948 39.337C36.9392 37.9106 44.957 40.952 43.6243 35.0627C42.2916 29.1741 39.3295 17.195 27.1316 20.9887C18.0295 24.5839 13.3088 19.4574 11.9901 19.4574C10.8356 19.4574 9.97031 20.2505 9.97031 21.5572C9.97031 24.1237 15.7413 32.6547 15.7413 39.1442C15.7413 45.6338 5.7569 54.3442 10.5516 53.2598C14.1319 52.4273 16.6221 54.6018 18.6116 55.6573C20.0775 56.4349 28.434 57.8916 24.8981 53.6553C21.3621 49.4183 21.4472 43.0631 25.361 43.0631C29.2749 43.0631 30.4028 47.5851 30.4028 51.8601C30.4028 56.1351 39.8702 57.4588 42.0216 55.347C43.398 53.9952 49.4019 41.1976 44.7255 40.6072L44.7263 40.6065ZM23.9004 37.4082C20.6869 37.4082 19.0043 26.4635 23.7998 26.4635C26.7722 26.4635 33.4728 27.728 33.4728 31.8792C33.4728 36.0303 28.7639 37.4082 23.9004 37.4082Z" fill="#CC2D45"/>
<path d="M70.858 41.6748C74.6129 36.4702 62.0976 35.5054 58.0381 39.4011C53.9785 43.2961 52.4446 36.2408 54.1042 30.6998C54.6885 28.7505 56.6617 26.6211 54.9814 25.6937C53.301 24.7662 50.9388 26.4037 49.4545 26.7562C46.2395 27.5803 44.1931 20.8684 42.7598 23.8485C41.6755 26.1032 47.661 36.1542 48.8303 41.9957C49.9995 47.8371 43.8322 53.1226 47.1255 55.3928C50.4189 57.6622 53.1664 54.5117 56.4006 55.3787C59.5993 56.3153 53.9785 48.8561 56.7216 45.6204C58.1941 43.9301 60.8611 40.223 63.6308 42.4087C66.4005 44.5951 58.842 53.9066 60.5142 55.4976C62.1864 57.0887 63.832 54.2478 66.561 54.2478C69.2901 54.2478 70.4298 56.891 71.565 55.7636C72.7003 54.6363 71.7448 53.7292 70.9549 52.4288C70.1865 51.1635 68.4876 46.1074 70.8573 41.6755L70.858 41.6748Z" fill="#CC2D45"/>
<path d="M94.6475 47.3635C93.5758 46.3826 91.4739 51.2459 86.157 51.2459C85.4537 51.2459 84.8021 51.1664 84.2045 51.02C82.8859 50.697 82.664 48.9968 83.8421 48.3487L90.1959 44.8534C91.6388 44.0688 92.7105 43.4411 92.2157 41.6769C91.7209 39.912 88.6295 36.853 82.9007 36.853C76.6356 36.853 71.5658 41.1273 71.5658 46.422C71.5658 48.7196 72.2285 51.5935 73.6462 53.6997C74.2845 54.6483 75.8509 56.4857 76.666 56.1338C84.8709 52.0087 89.7004 57.0184 90.8645 56.1338C93.9056 53.8235 96.0638 48.7118 94.6467 47.3635H94.6475ZM79.1007 45.4657C78.5793 42.9302 79.3211 40.4342 81.0879 39.9901C83.8495 39.2836 86.7339 43.363 83.3133 45.2447L81.2366 46.3896C80.3809 46.8611 79.2907 46.3882 79.1007 45.465V45.4657Z" fill="#CC2D45"/>
<path d="M131.238 48.7357C133.34 45.5606 133.217 41.9935 131.075 39.9549C128.932 37.9163 125.423 36.822 120.838 36.822C108.265 36.822 105.135 49.7927 110.66 55.0508C114.749 58.9408 120.352 53.6075 122.405 51.7398C124.616 49.6365 121.136 56.3885 124.388 55.613C127.641 54.8375 130.982 57.3279 132.398 54.5469C133.814 51.7659 129.135 51.9115 131.237 48.7364L131.238 48.7357ZM125.095 44.1659C123.706 47.652 114.708 53.8861 115.036 47.9757C115.307 43.0808 118.42 40.5038 120.852 40.4897C122.317 40.4813 126.484 40.6804 125.095 44.1659H125.095Z" fill="#CC2D45"/>
<path d="M109.475 39.5952C112.773 36.1527 107.313 37.3399 106.044 37.8085C104.714 38.2997 104.122 37.9254 104.868 36.7319C105.613 35.5377 107.958 30.3746 107.958 27.811C107.958 25.2474 106.846 22.4207 105.475 22.4207C100.236 22.4207 105.204 35.1253 102.466 36.6685C101.725 37.0858 100.069 37.0865 99.6929 36.7326C97.3077 32.9051 99.8933 25.0891 95.7938 27.284C93.5092 29.4577 94.0469 33.2704 98.0029 36.7108C98.7048 37.323 98.5007 38.2301 96.7338 37.6706C94.8161 37.064 91.1574 36.9268 93.5699 39.2223C96.9476 42.4361 96.989 46.45 96.989 48.2564C96.989 50.0628 96.0638 52.6637 94.9566 53.7334C93.8494 54.803 94.5025 56.1393 96.2021 56.1393C97.9016 56.1393 99.6981 54.1007 101.121 54.1007C103.589 54.1007 104.737 56.1393 106.007 56.1393C107.196 56.1393 109.733 56.0654 107.656 54.0887C105.578 52.112 104.317 44.5043 109.475 39.5967L109.475 39.5952ZM97.4024 34.1704C96.7449 34.2823 95.4987 32.1698 95.3279 31.2585C95.157 30.3479 95.5505 29.5182 96.208 29.4063C96.8655 29.2944 97.537 29.9425 97.7078 30.8531C97.8787 31.7637 98.0599 34.0578 97.4024 34.1697V34.1704ZM105.476 25.3818C106.359 25.3818 107.077 26.4416 107.077 27.7484C107.077 29.0552 106.036 32.6342 105.152 32.6342C104.269 32.6342 103.875 29.0552 103.875 27.7484C103.875 26.4416 104.592 25.3818 105.476 25.3818H105.476ZM97.6975 40.8823C97.4971 40.5108 97.8587 40.0815 98.2818 40.1927C101.544 41.0554 103.822 40.3904 105.242 39.7219C105.669 39.5207 106.124 39.9394 105.934 40.3552C102.402 48.0932 98.9474 43.2003 97.6975 40.8823Z" fill="#CC2D45"/>
</svg>
