<svg width="590" height="178" viewBox="0 0 590 178" fill="none" xmlns="http://www.w3.org/2000/svg">
<path d="M169.392 101.015C157.188 99.4721 160.32 156.14 118.57 113.609C109.011 104.51 113.785 96.0001 116.243 94.9514C132.211 88.1384 170.493 102.665 164.13 74.536C157.767 46.4102 143.624 -10.806 85.3833 7.31378C41.9242 24.4857 19.3842 0 13.088 0C7.57574 0 3.44418 3.78797 3.44418 10.0296C3.44418 22.2875 30.9985 63.0343 30.9985 94.0304C30.9985 125.027 -16.6733 166.63 6.21974 161.451C23.3145 157.475 35.2042 167.861 44.7033 172.902C51.7022 176.616 91.6018 183.574 74.7189 163.34C57.836 143.103 58.2421 112.748 76.9295 112.748C95.6169 112.748 101.002 134.347 101.002 154.766C101.002 175.184 146.206 181.507 156.478 171.42C163.05 164.963 191.716 103.838 169.388 101.018L169.392 101.015ZM69.9553 85.7386C54.612 85.7386 46.5784 33.4632 69.475 33.4632C83.6671 33.4632 115.66 39.5031 115.66 59.3303C115.66 79.1575 93.1768 85.7386 69.9553 85.7386Z" fill="white"/>
<path d="M294.161 106.117C312.089 81.2582 252.334 76.6501 232.951 95.2572C213.568 113.861 206.244 80.1625 214.168 53.6971C216.958 44.3868 226.379 34.2161 218.356 29.7861C210.333 25.3562 199.054 33.1775 191.967 34.8614C176.617 38.7973 166.846 6.73897 160.002 20.9733C154.825 31.7423 183.404 79.749 188.987 107.65C194.569 135.55 165.122 160.796 180.847 171.638C196.572 182.478 209.69 167.43 225.132 171.571C240.405 176.045 213.568 140.417 226.665 124.963C233.696 116.889 246.429 99.183 259.654 109.623C272.878 120.066 236.789 164.54 244.773 172.139C252.757 179.739 260.614 166.17 273.645 166.17C286.675 166.17 292.117 178.794 297.537 173.41C302.958 168.025 298.395 163.693 294.624 157.481C290.955 151.438 282.844 127.289 294.158 106.12L294.161 106.117Z" fill="white"/>
<path d="M407.748 133.288C402.631 128.603 392.595 151.832 367.209 151.832C363.851 151.832 360.74 151.452 357.886 150.753C351.59 149.21 350.531 141.09 356.156 137.994L386.493 121.299C393.382 117.552 398.499 114.554 396.137 106.127C393.774 97.6977 379.014 83.0869 351.661 83.0869C321.747 83.0869 297.541 103.502 297.541 128.791C297.541 139.765 300.705 153.492 307.474 163.552C310.522 168.083 318.001 176.859 321.892 175.178C361.068 155.475 384.127 179.403 389.685 175.178C404.206 164.143 414.51 139.728 407.744 133.288H407.748ZM333.517 124.224C331.028 112.113 334.569 100.192 343.006 98.0708C356.191 94.6962 369.963 114.181 353.631 123.168L343.715 128.637C339.63 130.889 334.425 128.63 333.517 124.22V124.224Z" fill="white"/>
<path d="M582.453 139.843C592.492 124.677 591.906 107.64 581.676 97.9026C571.446 88.1655 554.69 82.939 532.796 82.939C472.765 82.939 457.821 144.891 484.203 170.005C503.723 188.585 530.48 163.112 540.282 154.191C550.837 144.145 534.219 176.395 549.75 172.691C565.28 168.987 581.231 180.882 587.993 167.599C594.755 154.316 572.413 155.011 582.449 139.846L582.453 139.843ZM553.122 118.016C546.494 134.666 503.529 164.443 505.093 136.213C506.389 112.833 521.252 100.524 532.863 100.457C539.859 100.417 559.754 101.368 553.126 118.016H553.122Z" fill="white"/>
<path d="M478.546 96.1851C494.291 79.7425 468.22 85.4127 462.161 87.6512C455.811 89.9973 452.986 88.2092 456.546 82.5087C460.105 76.8049 471.299 52.1444 471.299 39.8999C471.299 27.6554 465.992 14.1538 459.445 14.1538C434.43 14.1538 458.149 74.8353 445.076 82.2062C441.538 84.1994 433.632 84.2027 431.838 82.5121C420.449 64.231 432.795 26.8991 413.221 37.3825C402.313 47.7649 404.88 65.9754 423.769 82.4079C427.12 85.3321 426.145 89.6645 417.709 86.9925C408.553 84.0952 391.084 83.4398 402.602 94.4037C418.73 109.754 418.927 128.926 418.927 137.554C418.927 146.182 414.51 158.604 409.224 163.713C403.937 168.822 407.055 175.205 415.17 175.205C423.285 175.205 431.862 165.468 438.657 165.468C450.44 165.468 455.921 175.205 461.984 175.205C467.662 175.205 479.778 174.852 469.859 165.411C459.939 155.969 453.915 119.632 478.542 96.1918L478.546 96.1851ZM420.901 70.2743C417.762 70.8087 411.812 60.7186 410.996 56.366C410.18 52.0167 412.059 48.054 415.198 47.5196C418.338 46.9851 421.544 50.0807 422.36 54.43C423.176 58.7793 424.041 69.7365 420.901 70.2709V70.2743ZM459.449 28.2974C463.668 28.2974 467.094 33.3592 467.094 39.6008C467.094 45.8424 462.125 62.937 457.905 62.937C453.686 62.937 451.807 45.8424 451.807 39.6008C451.807 33.3592 455.229 28.2974 459.452 28.2974H459.449ZM422.31 102.333C421.353 100.558 423.08 98.5076 425.1 99.0387C440.676 103.159 451.553 99.9831 458.333 96.7901C460.37 95.8288 462.542 97.8287 461.638 99.8151C444.773 136.774 428.278 113.404 422.31 102.333Z" fill="white"/>
</svg>
