<svg width="293" height="668" viewBox="0 0 293 668" fill="none" xmlns="http://www.w3.org/2000/svg">
<g clip-path="url(#clip0_590_1467)">
<path d="M32.0804 445.49C43.9609 397.241 92.3465 384.232 125.384 419.499C143.839 439.172 149.439 468.242 145.609 496.559C141.9 523.989 120.645 547.118 103.438 567.126C84.6175 588.989 55.3799 622.336 29.378 632.402C-1.959 644.502 14.7063 609.378 19.5088 594.503C27.7002 568.984 31.7237 542.014 31.0964 515.468C30.6859 496.061 27.8239 476.726 29.9663 457.273C30.4267 453.175 31.1145 449.243 32.0167 445.528L32.0804 445.49Z" fill="#AC75FF"/>
<path d="M62.3188 85.2505C54.8806 84.7414 47.2809 87.3805 39.8342 86.2745C33.5292 85.3542 26.0509 83.3209 20.1099 81.1967C17.9818 80.4326 15.5916 79.0063 15.6197 76.7969C15.6142 75.7682 16.1158 74.8701 16.4782 73.8821C19.2144 65.7738 9.70488 63.6501 4.39992 61.3653C2.74121 60.668 0.733589 59.0158 1.68445 57.4223C2.04391 56.8661 2.66844 56.5403 3.26687 56.3159C9.54531 53.7691 16.0145 53.0015 22.689 53.7466C26.6862 54.1809 36.996 54.4561 40.0784 56.7635C36.8569 54.3662 34.0455 51.4258 31.7704 48.0828C30.8652 46.7684 30.0007 45.0861 30.5575 43.5534C30.9722 42.3626 32.1836 41.6472 33.3051 41.0709C44.8118 35.4367 58.8325 38.9379 70.0273 45.226C81.2221 51.5141 90.85 60.3183 102.187 66.2645C102.035 66.2253 110.454 60.8235 111.472 60.4369C115.254 58.9775 119.552 58.2456 123.588 58.5278C127.84 58.8115 136.902 61.4146 137.832 66.4118C138.603 70.5571 125.604 77.1588 130.673 80.5721C131.456 81.0983 132.485 81.0927 133.45 81.1249C140.117 81.0572 147.465 80.0291 154.006 81.7129C158.142 82.2371 162.342 82.7236 166.346 83.9707C170.654 85.2961 195.697 96.1763 190.679 103.697C189.627 105.265 187.478 105.631 185.598 105.795C181.824 106.175 174.12 105.436 171.106 107.904C168.373 110.12 169.688 116.351 166.503 117.802C165.841 118.064 165.068 117.919 164.408 117.749C144.203 112.44 123.896 107.104 104.612 99.0578C90.8482 93.2978 77.2341 86.1166 62.3579 85.0984L62.3188 85.2505Z" fill="#28324E"/>
<path d="M-40.1126 158.037C-37.2505 155.53 -34.3507 153.087 -31.325 150.784C-12.6703 136.285 6.07468 125.215 21.3678 106.553C26.5809 100.164 42.6794 71.6523 53.9831 76.8871C33.8311 67.5903 10.3921 67.071 -11.3494 68.9891C-22.8113 70.0392 -34.2025 71.8645 -45.4837 74.3128C-51.4358 75.592 -60.5869 76.6964 -65.2257 80.8547C-74.5801 89.2596 -52.4807 92.4618 -47.0582 94.2902C-50.3902 93.1621 -62.6886 101.242 -65.8243 102.922C-70.8974 105.616 -77.215 108.315 -81.7348 111.801C-94.6306 121.782 -72.4844 123.752 -65.7853 124.612C-65.1 124.68 -77.0591 136.902 -77.6344 137.457C-83.324 142.967 -88.3835 149.179 -92.684 155.803C-94.1218 158.028 -95.1877 161.539 -92.8598 162.787C-91.8602 163.314 -90.6142 163.095 -89.4695 162.849C-83.8608 161.643 -78.2521 160.438 -72.6303 159.182C-80.1956 173.238 -79.6655 190.08 -79.015 206.035C-68.9075 187.984 -55.6752 171.656 -40.201 157.961L-40.1126 158.037Z" fill="#28324E"/>
<path d="M158.855 209.258C157.559 205.681 156.2 202.141 154.662 198.664C145.327 176.959 134.258 158.214 129.877 134.487C128.397 126.375 128.067 93.634 115.641 92.7599C137.777 94.3495 158.553 105.213 176.666 117.391C186.196 123.845 195.289 130.944 203.986 138.535C208.581 142.529 216.061 147.915 218.115 153.796C222.248 165.673 201.35 157.806 195.718 156.789C199.181 157.41 206.049 170.424 207.984 173.409C211.125 178.219 215.354 183.633 217.629 188.868C224.102 203.835 203.758 194.867 197.476 192.384C196.843 192.113 201.414 208.591 201.65 209.354C203.972 216.926 205.403 224.81 205.97 232.687C206.155 235.33 205.393 238.918 202.752 238.887C201.622 238.867 200.637 238.072 199.753 237.304C195.424 233.541 191.094 229.777 186.778 225.962C186.615 241.924 178.018 256.417 169.745 270.074C169.61 249.387 165.957 228.712 158.969 209.234L158.855 209.258Z" fill="#28324E"/>
<path d="M142.775 249.669C138.125 255.338 133.438 260.944 129.206 266.883C119.433 280.695 111.925 297.469 114.653 314.174C115.797 321.281 118.759 328.045 119.344 335.224C121.459 359.774 96.5826 384.998 75.9199 394.277C52.9894 404.593 27.2125 407.905 2.7219 401.601C-25.1153 394.434 -44.1216 375.647 -63.5014 355.79C-80.8505 337.915 -71.5466 313.115 -60.8793 293.1C-50.6758 274.046 -38.3045 253.712 -42.2453 232.477C-43.6168 225.204 -46.7951 218.438 -49.2229 211.488C-76.7794 131.405 9.31937 58.8472 85.8336 78.5446C143.992 93.5167 194.788 170.066 160.003 226.639C154.968 234.858 148.846 242.257 142.711 249.707L142.775 249.669Z" fill="#7932E4"/>
<path d="M-25.1656 525.26C82.5368 552.986 184.276 519.413 202.075 450.272C219.875 381.131 146.994 302.604 39.2915 274.878C-68.4108 247.151 -170.15 280.725 -187.949 349.866C-205.749 419.007 -132.868 497.534 -25.1656 525.26Z" fill="#7932E4"/>
<path d="M144.464 214.184C164.722 167.938 143.655 114.025 97.4093 93.7667C51.1633 73.508 -2.74941 94.5749 -23.0081 140.821C-43.2667 187.067 -22.1998 240.98 24.0462 261.238C70.2922 281.497 124.205 260.43 144.464 214.184Z" fill="#FAC51C"/>
<path d="M129.635 213.703C149.634 175.638 134.988 128.567 96.922 108.568C58.8565 88.5696 11.7861 103.216 -8.21271 141.281C-28.2115 179.347 -13.5655 226.417 24.5 246.416C62.5656 266.415 109.636 251.769 129.635 213.703Z" fill="white"/>
<path d="M44.5486 240.386C79.2732 249.325 114.67 228.422 123.609 193.697C132.548 158.973 111.645 123.576 76.9207 114.637C42.1961 105.697 6.79946 126.6 -2.13985 161.325C-11.0792 196.05 9.82397 231.446 44.5486 240.386Z" fill="#FAC51C"/>
<path d="M50.4487 217.467C72.5156 223.148 95.0096 209.864 100.69 187.797C106.371 165.73 93.0875 143.236 71.0206 137.555C48.9537 131.875 26.4597 145.158 20.7789 167.225C15.0981 189.292 28.3817 211.786 50.4487 217.467Z" fill="black"/>
<path d="M123.15 155.787C118.829 172.571 101.742 182.661 84.9587 178.341C68.1753 174.02 58.0846 156.933 62.4052 140.149C66.7258 123.366 83.8131 113.275 100.597 117.596C117.38 121.916 127.471 139.004 123.15 155.787Z" fill="white"/>
<path d="M87.1413 357.449C104.531 324.35 91.7958 283.421 58.6964 266.031C25.5971 248.641 -15.3323 261.376 -32.722 294.476C-50.1116 327.575 -37.3764 368.504 -4.27708 385.894C28.8223 403.284 69.7517 390.549 87.1413 357.449Z" fill="#FAC51C"/>
<path d="M35.3411 383.278C67.0069 378.792 89.0403 349.485 84.5541 317.82C80.068 286.154 50.7611 264.12 19.0953 268.607C-12.5704 273.093 -34.6038 302.4 -30.1177 334.065C-25.6315 365.731 3.67538 387.764 35.3411 383.278Z" fill="white"/>
<path d="M71.3997 345.329C82.0976 320.908 70.9729 292.438 46.552 281.741C22.1311 271.043 -6.33823 282.167 -17.0361 306.588C-27.734 331.009 -16.6093 359.478 7.81158 370.176C32.2325 380.874 60.7018 369.75 71.3997 345.329Z" fill="#FAC51C"/>
<path d="M56.9395 333.595C52.7102 350.023 36.0055 359.888 19.577 355.659C3.14852 351.429 -6.7163 334.725 -2.48705 318.296C1.74221 301.868 18.4469 292.003 34.8754 296.232C51.3039 300.461 61.1687 317.166 56.9395 333.595Z" fill="black"/>
<path d="M45.2422 326.528C57.7039 329.736 70.4067 322.235 73.6147 309.773C76.8228 297.312 69.3213 284.609 56.8596 281.401C44.3979 278.193 31.6951 285.694 28.4871 298.156C25.279 310.618 32.7805 323.32 45.2422 326.528Z" fill="white"/>
<path d="M-109.807 427.292C-109.537 426.875 -109.204 426.42 -108.819 425.978C-100.172 416.959 -79.3256 425.029 -69.5671 427.865C-51.3177 433.212 -35.7773 437.321 -16.43 438.193C12.2738 439.472 41.0553 436.88 69.4534 432.837C82.4701 430.997 123.231 415.052 121.002 441.565C116.632 492.56 38.0061 487.998 4.17663 480.586C-21.0053 475.077 -44.9763 465.284 -68.7952 455.529C-77.8362 451.796 -86.9411 448.101 -95.4415 443.317C-99.9321 440.809 -113.688 433.97 -109.833 427.394L-109.807 427.292Z" fill="#FAC51C"/>
<path d="M-115.491 408.42C-115.221 408.002 -114.888 407.548 -114.453 407.119C-105.349 398.217 -82.931 406.691 -72.4626 409.711C-52.8949 415.397 -36.1883 419.806 -15.4719 421.03C15.26 422.832 45.9684 420.735 76.2425 417.175C90.1212 415.558 133.468 400.279 131.492 426.857C127.732 478.008 43.5783 472.023 7.26432 463.972C-19.743 457.993 -45.5901 447.716 -71.1837 437.505C-80.9346 433.589 -90.6986 429.724 -99.8582 424.771C-104.704 422.172 -119.525 415.059 -115.517 408.521L-115.491 408.42Z" fill="#F7DA64"/>
<path d="M-107.862 419.737C-107.592 419.32 -107.259 418.865 -106.875 418.423C-98.227 409.404 -77.3806 417.474 -67.6221 420.31C-49.3728 425.657 -33.8324 429.766 -14.485 430.637C14.2187 431.917 43.0003 429.325 71.3983 425.281C84.415 423.442 125.176 407.497 122.946 434.01C118.577 485.005 39.951 480.443 6.12158 473.031C-19.0604 467.522 -43.0313 457.728 -66.8502 447.974C-75.8913 444.241 -84.9961 440.546 -93.4965 435.762C-97.9872 433.254 -111.743 426.415 -107.888 419.838L-107.862 419.737Z" fill="#28324E"/>
<path d="M151.703 407.784C154.441 412.058 156.428 416.732 157.551 421.4C158.502 425.268 159.006 429.398 158.75 433.333C158.567 435.935 158.187 443.082 156.155 444.884C159.784 441.709 162.074 437.433 163.236 432.92C165.859 422.728 164.034 411.337 156.805 402.664C148.973 393.187 135.512 387.721 122.691 388.8C135.317 390.158 145.459 398.013 151.703 407.784Z" fill="#7932E4"/>
<path d="M149.422 414.334C151.597 419.327 152.982 424.658 153.466 429.918C153.905 434.303 153.86 438.887 153.068 443.224C152.54 446.116 151.215 453.993 148.916 455.78C152.99 452.558 155.828 448.044 157.564 443.192C161.59 432.172 161.196 419.42 155.185 409.167C148.596 398.01 135.859 390.784 122.931 390.808C135.396 393.422 144.447 402.997 149.358 414.372L149.422 414.334Z" fill="#28324E"/>
<path d="M-38.5069 448.134C-39.8806 459.351 -13.3728 464.12 -6.33631 465.769C7.48312 469.002 27.5348 474.489 41.2132 468.819C42.6651 468.22 44.1055 467.455 45.0287 466.179C45.6447 465.256 45.9319 464.141 45.9901 463.074C46.1242 460.243 44.7848 457.466 42.8309 455.395C40.877 453.324 38.3086 451.96 35.6749 450.849C26.1283 446.77 17.2945 447.902 7.30207 447.654C-2.95698 447.392 -13.1608 446.495 -23.2717 445.028C-29.6274 444.094 -37.9813 443.782 -38.5069 448.134Z" fill="#CC2D45"/>
</g>
<defs>
<clipPath id="clip0_590_1467">
<rect width="402.741" height="586.1" fill="white" transform="translate(-97.8818) rotate(14.4364)"/>
</clipPath>
</defs>
</svg>
